<?xml version="1.0" encoding="UTF-8" standalone="no"?>
<svg
   xmlns:dc="http://purl.org/dc/elements/1.1/"
   xmlns:cc="http://creativecommons.org/ns#"
   xmlns:rdf="http://www.w3.org/1999/02/22-rdf-syntax-ns#"
   xmlns:svg="http://www.w3.org/2000/svg"
   xmlns="http://www.w3.org/2000/svg"
   xmlns:sodipodi="http://sodipodi.sourceforge.net/DTD/sodipodi-0.dtd"
   xmlns:inkscape="http://www.inkscape.org/namespaces/inkscape"
   inkscape:version="1.0rc1 (09960d6, 2020-04-09)"
   sodipodi:docname="logo-moje_short.svg"
   width="77.858131mm"
   height="26.519987mm"
   viewBox="0 0 77.858133 26.519987"
   version="1.1"
   id="svg8">
  <sodipodi:namedview
     fit-margin-bottom="0"
     fit-margin-top="0"
     fit-margin-right="0.5"
     fit-margin-left="0.5"
     inkscape:current-layer="svg8"
     inkscape:window-maximized="1"
     inkscape:window-y="25"
     inkscape:window-x="0"
     inkscape:cy="16.321945"
     inkscape:cx="329.49701"
     inkscape:zoom="0.82853559"
     showgrid="false"
     id="namedview1551"
     inkscape:window-height="847"
     inkscape:window-width="1440"
     inkscape:pageshadow="2"
     inkscape:pageopacity="0"
     guidetolerance="10"
     gridtolerance="10"
     objecttolerance="10"
     borderopacity="1"
     bordercolor="#666666"
     pagecolor="#ffffff" />
  <defs
     id="defs2">
    <rect
       x="65.748306"
       y="33.675961"
       width="155.81815"
       height="21.114292"
       id="rect861" />
    <rect
       x="114.12409"
       y="70.826424"
       width="49.177593"
       height="42.763123"
       id="rect847" />
    <rect
       x="40.892239"
       y="38.486813"
       width="37.952274"
       height="34.745041"
       id="rect837" />
  </defs>
  <metadata
     id="metadata5">
    <rdf:RDF>
      <cc:Work
         rdf:about="">
        <dc:format>image/svg+xml</dc:format>
        <dc:type
           rdf:resource="http://purl.org/dc/dcmitype/StillImage" />
        <dc:title></dc:title>
      </cc:Work>
    </rdf:RDF>
  </metadata>
  <text
     transform="translate(-33.019279,-30.992752)"
     style="font-size:25.39999999999999858px;line-height:1.25;font-family:'Halogen by Pixel Surplus';-inkscape-font-specification:'Halogen by Pixel Surplus';white-space:pre;shape-inside:url(#rect837);fill:#00ffff;"
     id="text835"
     xml:space="preserve" />
  <text
     id="text843"
     y="26.737465"
     x="22.305511"
     style="font-size:10.5833px;line-height:1.25;font-family:'Halogen by Pixel Surplus';-inkscape-font-specification:'Halogen by Pixel Surplus';stroke-width:0.264583"
     xml:space="preserve"><tspan
       style="stroke-width:0.264583"
       y="26.737465"
       x="22.305511"
       id="tspan841" /></text>
  <g
     id="g2209">
    <path
       id="rect833"
       style="fill:#ffe993;fill-opacity:1;fill-rule:evenodd;stroke:#9dd9dc;stroke-width:2.5;stroke-linejoin:round;stroke-miterlimit:4;stroke-dasharray:none;stroke-opacity:1;paint-order:stroke fill markers"
       d="M 1.7500005,1.2500001 H 25.769986 V 25.269987 H 1.7500005 Z" />
    <g
       aria-label="T"
       transform="translate(-124.96,-69.463448)"
       id="text845"
       style="font-style:normal;font-variant:normal;font-weight:bold;font-stretch:normal;font-size:19.7556px;line-height:1.25;font-family:Jura;-inkscape-font-specification:'Jura Bold';white-space:pre;shape-inside:url(#rect847);fill:#9dd9dc;fill-opacity:1">
      <path
         d="m 138.71999,89.410714 q -0.41487,0 -0.6223,-0.207434 -0.20743,-0.207434 -0.20743,-0.622301 V 77.695643 h -3.83259 q -0.41487,0 -0.6223,-0.207434 -0.20744,-0.207433 -0.20744,-0.622301 0,-0.414868 0.20744,-0.622301 0.20743,-0.207434 0.6223,-0.207434 h 9.32464 q 0.41487,0 0.6223,0.207434 0.20744,0.207433 0.20744,0.622301 0,0.414868 -0.20744,0.622301 -0.20743,0.207434 -0.6223,0.207434 h -3.83258 v 10.885336 q 0,0.395112 -0.21732,0.612423 -0.20743,0.217312 -0.61242,0.217312 z"
         style="font-style:normal;font-variant:normal;font-weight:bold;font-stretch:normal;font-family:Jura;-inkscape-font-specification:'Jura Bold';text-align:center;text-anchor:middle;fill:#9dd9dc;fill-opacity:1"
         id="path2197" />
    </g>
    <g
       aria-label="ICHÃ"
       transform="matrix(1.1307074,0,0,1.0862417,-45.525735,-35.028462)"
       id="text859"
       style="font-size:17.8259px;line-height:1.25;font-family:'Halogen by Pixel Surplus';-inkscape-font-specification:'Halogen by Pixel Surplus';white-space:pre;shape-inside:url(#rect861);fill:none;stroke:#9dd9dc;stroke-width:0.4;stroke-miterlimit:4;stroke-dasharray:none;stroke-opacity:1">
      <path
         inkscape:connector-curvature="0"
         d="m 68.350628,50.44501 q -0.383257,0 -0.570429,-0.178259 Q 67.60194,50.079579 67.60194,49.696322 V 39.125564 q 0,-0.39217 0.178259,-0.570429 0.187172,-0.178259 0.570429,-0.178259 0.39217,0 0.570429,0.178259 0.178259,0.178259 0.178259,0.570429 v 10.570758 q 0,0.383257 -0.178259,0.570429 -0.178259,0.178259 -0.570429,0.178259 z"
         style="font-style:normal;font-variant:normal;font-weight:bold;font-stretch:normal;font-family:Jura;-inkscape-font-specification:'Jura Bold';stroke:#9dd9dc;stroke-opacity:1"
         id="path2150" />
      <path
         inkscape:connector-curvature="0"
         d="m 76.389551,50.44501 q -2.041065,0 -3.02149,-0.971512 -0.971511,-0.980424 -0.971511,-3.02149 v -4.099956 q 0,-2.058892 0.971511,-3.030403 0.971512,-0.980425 3.003664,-0.962599 h 2.156934 q 1.675635,0 2.558017,0.69521 0.882382,0.686297 1.024989,2.17476 0.05348,0.374344 -0.142607,0.570429 -0.196085,0.196085 -0.570429,0.196085 -0.677384,0 -0.78434,-0.748688 -0.08913,-0.819991 -0.570428,-1.105206 -0.472387,-0.285214 -1.515202,-0.285214 h -2.156934 q -0.944772,-0.0089 -1.488462,0.213911 -0.534777,0.222823 -0.766514,0.775426 -0.222823,0.54369 -0.222823,1.506289 v 4.099956 q 0,0.953686 0.222823,1.497376 0.231737,0.54369 0.775427,0.775427 0.54369,0.222823 1.497375,0.222823 h 2.139108 q 1.042815,0 1.515202,-0.285214 0.481299,-0.294127 0.570428,-1.105206 0.106956,-0.748688 0.78434,-0.748688 0.374344,0 0.570429,0.196085 0.196085,0.196085 0.142607,0.570429 -0.142607,1.497376 -1.024989,2.183673 -0.882382,0.686297 -2.558017,0.686297 z"
         style="font-style:normal;font-variant:normal;font-weight:bold;font-stretch:normal;font-family:Jura;-inkscape-font-specification:'Jura Bold';stroke:#9dd9dc;stroke-opacity:1"
         id="path2152" />
      <path
         inkscape:connector-curvature="0"
         d="m 85.967629,50.44501 q -0.294128,0 -0.525864,-0.222824 -0.222824,-0.231737 -0.222824,-0.525864 V 39.107738 q 0,-0.294127 0.222824,-0.516951 0.231736,-0.231737 0.525864,-0.231737 0.294127,0 0.516951,0.231737 0.231736,0.222824 0.231736,0.516951 v 4.474301 h 7.272967 v -4.474301 q 0,-0.294127 0.222824,-0.516951 0.222824,-0.231737 0.525864,-0.231737 0.294127,0 0.516951,0.231737 0.231737,0.222824 0.231737,0.516951 v 10.588584 q 0,0.294127 -0.231737,0.525864 -0.222824,0.222824 -0.516951,0.222824 -0.30304,0 -0.525864,-0.222824 -0.222824,-0.231737 -0.222824,-0.525864 v -4.616908 h -7.272967 v 4.616908 q 0,0.294127 -0.231736,0.525864 -0.222824,0.222824 -0.516951,0.222824 z"
         style="font-style:normal;font-variant:normal;font-weight:bold;font-stretch:normal;font-family:Jura;-inkscape-font-specification:'Jura Bold';stroke:#9dd9dc;stroke-opacity:1"
         id="path2154" />
      <path
         inkscape:connector-curvature="0"
         d="m 98.609812,50.373706 q -0.713036,-0.276301 -0.427821,-0.980424 l 4.242559,-10.445977 q 0.26739,-0.588255 0.83782,-0.588255 h 0.0356 q 0.57935,0.02674 0.78434,0.588255 l 4.31387,10.445977 q 0.28522,0.704123 -0.40999,0.980424 -0.70413,0.276302 -0.98043,-0.409995 l -0.9626,-2.335193 h -5.55277 l -0.918029,2.335193 q -0.276302,0.69521 -0.962599,0.409995 z m 2.468888,-4.242564 h 4.34952 l -2.21933,-5.401247 z m 2.09454,-8.556431 q 0.52587,0.418908 0.90912,-0.0713 l 1.30129,-1.568679 q 0.42783,-0.516951 -0.0713,-0.909121 -0.49913,-0.418908 -0.90912,0.0713 l -1.30129,1.568679 q -0.41891,0.499125 0.0713,0.909121 z"
         style="font-style:normal;font-variant:normal;font-weight:bold;font-stretch:normal;font-family:Jura;-inkscape-font-specification:'Jura Bold';stroke:#9dd9dc;stroke-opacity:1"
         id="path2156" />
    </g>
  </g>
</svg>
