<svg xmlns="http://www.w3.org/2000/svg" viewBox="0 0 120 40">
  <g style="fill:#dc7a25" transform="matrix(1.1049766,0,0,1.1049766,-1.0104697e-6,0.081734)">
    <path d="m 43.765313,30.608543 q -1.512713,0 -2.957692,-0.338667 -1.422401,-0.338667 -2.483558,-1.016001 -0.519289,-0.338667 -0.632178,-0.835379 -0.112889,-0.496711 0.06773,-0.92569 0.2032,-0.451556 0.609601,-0.6096 0.428978,-0.180623 0.970845,0.158044 0.993423,0.587023 2.099735,0.857957 1.106313,0.270933 2.325514,0.270933 1.783646,0 2.596447,-0.587022 0.812801,-0.609601 0.812801,-1.557869 0,-0.790223 -0.587023,-1.241779 -0.564445,-0.451556 -1.964269,-0.745067 l -2.483558,-0.51929 q -4.244626,-0.903112 -4.244626,-4.357515 0,-1.490135 0.790223,-2.596447 0.790223,-1.106312 2.190046,-1.715913 1.399824,-0.609601 3.228626,-0.609601 1.354668,0 2.573869,0.338667 1.219201,0.338667 2.190047,0.993424 0.451556,0.316089 0.541867,0.790223 0.09031,0.451556 -0.112889,0.857956 -0.2032,0.383823 -0.654756,0.541867 -0.428978,0.135467 -1.016001,-0.2032 -0.835379,-0.474134 -1.693335,-0.677334 -0.857957,-0.2032 -1.85138,-0.2032 -1.557868,0 -2.438402,0.654756 -0.880535,0.654756 -0.880535,1.715913 0,0.812801 0.541868,1.309512 0.541867,0.474134 1.851379,0.745068 l 2.460981,0.519289 q 2.235202,0.474134 3.318936,1.490135 1.106313,1.016001 1.106313,2.709336 0,1.422402 -0.767646,2.506136 -0.767645,1.083734 -2.190046,1.693335 -1.399824,0.587023 -3.318937,0.587023 z"/>
    <path d="m 56.560225,30.608543 q -1.738491,0 -3.025426,-0.699912 -1.286934,-0.72249 -1.986846,-2.032002 -0.699912,-1.309513 -0.699912,-3.070581 0,-1.761068 0.699912,-3.025425 0.699912,-1.286935 1.986846,-1.964269 1.286935,-0.699912 3.025426,-0.699912 0.745067,0 1.603024,0.2032 0.880534,0.203201 1.648179,0.677334 0.451556,0.270934 0.519289,0.699912 0.09031,0.428979 -0.112889,0.790223 -0.180622,0.361245 -0.564445,0.51929 -0.361244,0.158044 -0.835378,-0.112889 -1.038579,-0.587023 -2.009425,-0.587023 -1.467557,0 -2.280357,0.92569 -0.790223,0.903112 -0.790223,2.596447 0,1.670757 0.790223,2.641603 0.8128,0.948267 2.280357,0.948267 0.970846,0 2.009425,-0.564445 0.474134,-0.270933 0.835378,-0.112889 0.361245,0.158045 0.51929,0.541867 0.158044,0.361245 0.06773,0.790223 -0.09031,0.406401 -0.519289,0.677334 -0.745068,0.451556 -1.580446,0.654757 -0.835379,0.2032 -1.580446,0.2032 z"/>
    <path d="m 66.149793,30.608543 q -1.715913,0 -2.98027,-0.699912 -1.264356,-0.699912 -1.964268,-1.986846 -0.699912,-1.309513 -0.699912,-3.070581 0,-1.761069 0.699912,-3.048003 0.699912,-1.286935 1.964268,-1.986847 1.264357,-0.699912 2.98027,-0.699912 1.715913,0 2.98027,0.699912 1.264357,0.699912 1.964269,1.986847 0.699911,1.286934 0.699911,3.048003 0,1.761068 -0.699911,3.070581 -0.699912,1.286934 -1.964269,1.986846 -1.264357,0.699912 -2.98027,0.699912 z m 0,-2.144891 q 1.264357,0 2.032002,-0.903112 0.767645,-0.92569 0.767645,-2.709336 0,-1.806224 -0.767645,-2.686759 -0.767645,-0.903112 -2.032002,-0.903112 -1.264357,0 -2.032002,0.903112 -0.767645,0.880535 -0.767645,2.686759 0,1.783646 0.767645,2.709336 0.767645,0.903112 2.032002,0.903112 z"/>
    <path d="m 78.364738,30.608543 q -1.715913,0 -2.98027,-0.699912 -1.264357,-0.699912 -1.964268,-1.986846 -0.699912,-1.309513 -0.699912,-3.070581 0,-1.761069 0.699912,-3.048003 0.699911,-1.286935 1.964268,-1.986847 1.264357,-0.699912 2.98027,-0.699912 1.715913,0 2.98027,0.699912 1.264357,0.699912 1.964268,1.986847 0.699912,1.286934 0.699912,3.048003 0,1.761068 -0.699912,3.070581 -0.699911,1.286934 -1.964268,1.986846 -1.264357,0.699912 -2.98027,0.699912 z m 0,-2.144891 q 1.264357,0 2.032002,-0.903112 0.767645,-0.92569 0.767645,-2.709336 0,-1.806224 -0.767645,-2.686759 -0.767645,-0.903112 -2.032002,-0.903112 -1.264357,0 -2.032002,0.903112 -0.767645,0.880535 -0.767645,2.686759 0,1.783646 0.767645,2.709336 0.767645,0.903112 2.032002,0.903112 z"/>
    <path d="m 90.469969,30.608543 q -4.380093,0 -4.380093,-4.334938 V 21.464534 H 84.91583 q -1.12889,0 -1.12889,-1.061157 0,-1.061157 1.12889,-1.061157 h 1.174046 v -2.05458 q 0,-1.422401 1.422401,-1.422401 1.399824,0 1.399824,1.422401 v 2.05458 h 2.393246 q 1.128891,0 1.128891,1.061157 0,1.061157 -1.128891,1.061157 h -2.393246 v 4.651026 q 0,1.083735 0.474133,1.625602 0.474134,0.541867 1.535291,0.541867 0.383822,0 0.677334,-0.06773 0.293511,-0.06773 0.519289,-0.09031 0.270934,-0.02258 0.451556,0.180622 0.180623,0.180623 0.180623,0.767645 0,0.451556 -0.158045,0.812801 -0.135467,0.338667 -0.519289,0.474134 -0.293512,0.09031 -0.767646,0.158045 -0.474133,0.09031 -0.835378,0.09031 z"/>
    <path d="m 95.014456,17.08444 q -0.790223,0 -1.241779,-0.383822 -0.428978,-0.406401 -0.428978,-1.106313 0,-0.722489 0.428978,-1.106312 0.451556,-0.383823 1.241779,-0.383823 1.670758,0 1.670758,1.490135 0,1.490135 -1.670758,1.490135 z m 0,13.456369 q -0.677334,0 -1.038578,-0.4064 -0.361245,-0.4064 -0.361245,-1.12889 v -8.286053 q 0,-1.53529 1.399823,-1.53529 1.422402,0 1.422402,1.53529 v 8.286053 q 0,0.72249 -0.361245,1.12889 -0.361245,0.4064 -1.061157,0.4064 z"/>
    <path d="m 104.03887,30.608543 q -1.87395,0 -3.22862,-0.699912 -1.354671,-0.699912 -2.099738,-1.986846 -0.72249,-1.286935 -0.72249,-3.048004 0,-1.715912 0.699912,-3.002847 0.72249,-1.286935 1.964266,-2.009424 1.26436,-0.745068 2.86738,-0.745068 2.34809,0 3.70276,1.490135 1.37725,1.490135 1.37725,4.064004 0,0.835379 -1.08374,0.835379 h -6.81849 q 0.31609,2.957692 3.38667,2.957692 0.58702,0 1.30951,-0.135467 0.74507,-0.158045 1.39982,-0.519289 0.58703,-0.338667 0.99343,-0.203201 0.4064,0.112889 0.56444,0.474134 0.18063,0.361245 0.0452,0.812801 -0.11289,0.428978 -0.63218,0.745067 -0.79022,0.496712 -1.8288,0.745068 -1.016,0.225778 -1.89654,0.225778 z m -0.4064,-9.572988 q -1.24178,0 -2.00942,0.767646 -0.76765,0.767645 -0.92569,2.077157 h 5.55414 q -0.0903,-1.377246 -0.76765,-2.099735 -0.65475,-0.745068 -1.85138,-0.745068 z"/>
    <path d="m 20.919324,5.5353572 c -8.424808,8.7e-5 -15.2543758,6.8315348 -15.2542818,15.2584498 8.7e-5,8.426787 6.8296078,15.258028 15.2542818,15.258115 5.053258,-0.30629 8.696991,-2.043685 11.020753,-4.385115 1.809527,-1.82328 3.367565,-4.253044 2.676201,-4.233476 -1.062219,0.03005 -6.083679,-0.148394 -6.73534,0.0257 -0.456872,0.122054 -2.069188,2.506252 -6.802481,2.475623 -5.04707,-6e-6 -9.297657,-4.09249 -9.297663,-9.140831 0,-5.039969 4.078397,-9.128986 9.117082,-9.140817 0.0072,-7e-6 0.01432,-7e-6 0.02141,0 5.047068,6e-6 9.138513,4.09249 9.138526,9.140817 -2e-5,2.847254 -1.988309,4.986253 -1.49704,5.013175 0,0 5.982386,0.148976 6.766232,0.01345 0.512054,-0.08851 0.915752,-2.809203 0.846906,-5.026625 C 35.912395,12.370837 29.344224,5.5352732 20.919293,5.5353732 Z"/>
  </g>
  <path style="stroke:#000000;stroke-width:1.33355" d="M 2.8363757,20.068205 C 2.0861265,20.5757 1.0066461,21.253912 0.74244732,21.017947 0.47824632,20.78199 1.0298815,19.632074 1.3902829,18.552412 1.7506832,17.472742 1.9196485,16.463698 2.4665688,14.806086 3.0134902,13.148475 3.938455,10.842164 5.9253344,8.5494967 7.9122137,6.2568283 10.960933,3.9778772 14.477655,2.5386761 17.994377,1.099474 21.978642,0.50008829 25.676018,0.84324207 c 3.697375,0.34314603 7.107437,1.62869123 9.915151,3.63726463 2.807714,2.0085744 4.990405,4.711936 6.898193,6.0199383 1.907789,1.308002 3.439102,1.169712 4.742343,1.319588 1.30324,0.149886 2.280432,0.578564 1.555346,1.220735 -0.725087,0.642169 -2.919506,1.399478 -4.678748,1.84651 -1.759245,0.447022 -2.443474,0.422821 -3.075232,0.264565 -0.63176,-0.158256 -1.063858,-0.414792 -2.145027,-1.73441 -1.08117,-1.31962 -2.465152,-3.287331 -4.615202,-5.0392365 C 32.122794,6.626285 29.228894,5.191201 26.005906,4.6477172 22.782921,4.1042411 19.193937,4.4339883 16.068535,5.8015238 12.943133,7.1690583 10.277872,9.5779227 8.6556585,11.587353 c -1.6222127,2.009432 -2.2112526,3.631535 -2.7435176,4.783063 -0.532265,1.151529 -1.008395,1.83445 -1.4567182,2.344155 -0.4483222,0.509708 -0.8687977,0.84614 -1.619047,1.353634 z"/>
  <path d="m 24.837892,24.72678 h 8.025401 c 2.227039,0 4.019928,0.885723 4.019928,1.985926 0,1.100204 -1.792889,1.985926 -4.019928,1.985926 h -8.025401 c -2.227041,0 -4.019928,-0.885722 -4.019928,-1.985926 0,-1.100203 1.792887,-1.985926 4.019928,-1.985926 z"/>
  <path style="fill:#ffffff" d="m 26.158593,25.893542 h 5.384001 c 2.227041,0 4.019928,0.332146 4.019928,0.744722 v 0.07444 c 0,0.412576 -1.792887,0.744722 -4.019928,0.744722 h -5.384001 c -2.227039,0 -4.019927,-0.332146 -4.019927,-0.744722 v -0.07444 c 0,-0.412576 1.792888,-0.744722 4.019927,-0.744722 z"/>
</svg>
